<?xml version="1.0" standalone="no"?>
<!DOCTYPE svg PUBLIC "-//W3C//DTD SVG 20010904//EN"
 "http://www.w3.org/TR/2001/REC-SVG-20010904/DTD/svg10.dtd">
<svg version="1.0" xmlns="http://www.w3.org/2000/svg"
 width="2480.000000pt" height="2480.000000pt" viewBox="0 0 2480.000000 2480.000000"
 preserveAspectRatio="xMidYMid meet">

<g transform="translate(0.000000,2480.000000) scale(0.100000,-0.100000)"
fill="#000000" stroke="none">
<path d="M12345 24651 c-6 -5 -219 -95 -475 -201 -256 -106 -663 -275 -905
-375 -242 -100 -741 -307 -1110 -460 -714 -296 -1795 -744 -2680 -1110 -297
-122 -713 -295 -925 -383 -802 -333 -1392 -577 -1900 -787 -289 -119 -550
-229 -580 -243 l-54 -27 -164 -395 c-89 -217 -242 -586 -339 -820 -180 -436
-424 -1026 -913 -2205 -153 -368 -304 -733 -335 -810 -31 -77 -97 -234 -145
-350 -49 -115 -208 -500 -355 -855 -147 -355 -363 -877 -480 -1160 -117 -283
-356 -859 -530 -1280 -186 -449 -315 -773 -312 -785 2 -11 131 -326 287 -700
155 -374 378 -912 495 -1195 117 -283 278 -672 358 -865 80 -192 211 -510 292
-705 81 -195 273 -659 427 -1030 154 -371 377 -909 495 -1195 118 -286 264
-637 323 -780 59 -143 193 -467 298 -720 421 -1018 592 -1431 600 -1443 4 -8
43 -29 87 -47 44 -18 370 -153 725 -300 355 -147 969 -401 1365 -565 396 -164
997 -413 1335 -553 338 -140 775 -321 970 -402 195 -81 564 -234 820 -340 443
-184 741 -307 2115 -875 330 -137 741 -307 914 -379 173 -72 321 -131 329
-131 7 0 159 60 335 134 177 74 493 205 702 291 209 86 601 248 870 360 270
112 726 301 1015 420 289 120 696 288 905 375 1463 607 2052 851 2715 1125
1191 493 1782 737 1955 809 l160 67 54 132 c56 136 281 679 844 2037 422 1019
489 1180 729 1760 110 267 261 631 335 810 74 179 204 492 288 695 162 393
502 1213 740 1785 79 190 241 581 360 870 119 289 221 529 226 535 13 13 11
38 -5 71 -8 16 -81 189 -161 384 -292 708 -749 1810 -845 2040 -54 129 -207
498 -340 820 -133 322 -290 702 -350 845 -59 143 -260 627 -445 1075 -186 448
-435 1051 -555 1340 -219 527 -415 1001 -715 1724 l-161 390 -64 27 c-36 14
-380 157 -765 316 -385 160 -936 388 -1225 508 -693 288 -1881 780 -2455 1017
-425 175 -744 308 -1855 768 -545 227 -1371 569 -1845 765 -209 86 -393 163
-409 171 -33 16 -58 18 -71 5z m136 -1392 c52 -22 166 -69 254 -104 237 -93
1041 -424 1185 -488 69 -30 181 -78 250 -107 69 -28 159 -67 200 -84 41 -18
138 -57 215 -86 162 -61 1041 -426 1620 -672 110 -47 304 -127 430 -178 389
-156 896 -366 1190 -492 153 -66 473 -198 710 -293 236 -95 522 -212 635 -260
179 -76 303 -128 799 -337 l105 -44 54 -129 c30 -72 83 -200 119 -285 36 -85
109 -261 163 -390 54 -129 128 -305 165 -390 37 -85 105 -252 152 -370 115
-293 161 -406 188 -465 13 -27 73 -169 133 -315 60 -146 150 -362 200 -480 49
-118 145 -350 212 -515 272 -664 587 -1423 675 -1625 83 -190 194 -460 240
-585 21 -55 71 -179 113 -275 41 -96 118 -281 172 -410 53 -129 138 -332 187
-450 50 -118 164 -394 253 -614 143 -348 162 -402 153 -425 -6 -14 -35 -87
-66 -161 -31 -74 -103 -250 -161 -390 -147 -362 -357 -867 -501 -1205 -127
-300 -160 -381 -193 -475 -10 -30 -69 -172 -129 -315 -258 -608 -430 -1023
-733 -1765 -71 -173 -141 -342 -155 -375 -15 -33 -89 -211 -166 -395 -131
-318 -169 -407 -275 -657 -25 -60 -58 -144 -74 -188 -16 -44 -49 -127 -73
-185 -245 -586 -314 -751 -411 -980 -62 -146 -141 -337 -177 -424 l-64 -159
-55 -25 c-30 -13 -228 -94 -440 -179 -212 -85 -491 -200 -620 -255 -129 -56
-395 -167 -590 -248 -195 -82 -470 -196 -610 -255 -140 -58 -292 -119 -337
-135 -46 -16 -156 -61 -245 -99 -90 -38 -244 -103 -343 -144 -99 -42 -238
-101 -308 -132 -160 -69 -857 -355 -992 -405 -55 -21 -257 -105 -450 -188
-192 -82 -510 -215 -706 -295 -196 -80 -385 -159 -420 -175 -35 -16 -120 -51
-189 -77 -199 -77 -727 -297 -1165 -485 -104 -45 -201 -84 -215 -86 -18 -4
-113 32 -330 124 -461 196 -731 309 -880 369 -74 30 -158 65 -186 79 -28 13
-55 24 -59 24 -5 0 -67 24 -139 54 -72 30 -296 122 -498 205 -201 83 -523 218
-715 299 -191 82 -359 153 -373 157 -53 16 -877 353 -1041 426 -52 23 -191 82
-309 132 -118 49 -273 114 -345 144 -71 30 -166 68 -210 83 -44 16 -165 65
-270 108 -104 44 -327 137 -495 207 -168 70 -449 188 -625 262 -176 75 -457
191 -625 259 -168 67 -374 151 -459 186 l-155 64 -82 200 c-45 109 -174 424
-287 699 -196 477 -515 1244 -647 1555 -34 80 -75 181 -91 226 -16 45 -74 189
-130 320 -55 131 -149 356 -209 499 -59 143 -142 339 -183 436 -42 97 -119
286 -172 420 -53 134 -116 289 -140 344 -24 55 -86 204 -138 330 -52 127 -151
365 -220 530 -69 165 -162 390 -207 500 -45 110 -90 218 -100 240 -10 22 -49
117 -86 210 -61 155 -231 563 -274 660 -10 22 -54 128 -98 235 -44 107 -90
218 -102 246 l-22 51 72 174 c40 96 94 226 122 289 65 150 343 828 353 860 4
14 21 54 38 90 16 36 76 178 132 315 112 271 362 874 470 1130 37 88 95 232
130 320 34 88 87 219 117 290 31 72 128 303 216 515 88 212 190 453 226 536
36 84 101 243 146 355 45 112 108 269 142 349 33 80 97 235 143 345 45 110
101 245 125 300 64 149 321 770 490 1185 82 201 175 427 208 504 l58 138 55
23 c30 12 200 84 379 160 566 239 929 389 1130 469 283 112 542 219 731 302
178 78 514 217 1099 454 201 81 446 183 545 225 99 43 297 126 440 185 143 60
368 154 500 210 210 89 344 143 705 285 47 19 193 80 325 136 548 233 783 330
1225 509 256 103 485 197 510 208 25 11 50 21 56 21 6 1 53 -17 105 -40z"/>
<path d="M10080 15111 c0 -2743 -3 -4132 -10 -4136 -6 -4 -10 -58 -10 -129 0
-82 -5 -135 -14 -157 -7 -19 -17 -82 -21 -141 -4 -60 -11 -108 -16 -108 -5 0
-9 -11 -9 -25 0 -30 -19 -113 -31 -137 -5 -10 -9 -26 -9 -37 0 -11 -5 -21 -11
-23 -6 -2 -13 -20 -15 -41 -3 -20 -18 -62 -34 -94 -17 -32 -30 -63 -30 -70 0
-6 -6 -16 -14 -20 -7 -4 -20 -21 -29 -38 -16 -31 -105 -125 -118 -125 -5 0
-20 -11 -35 -25 -14 -13 -42 -30 -60 -37 -19 -7 -34 -15 -34 -19 0 -4 -15 -11
-32 -14 -18 -4 -40 -13 -48 -20 -17 -14 -97 -35 -134 -35 -13 0 -31 -7 -39
-15 -9 -9 -45 -17 -89 -21 -40 -4 -77 -10 -83 -14 -5 -4 -38 -10 -73 -13 -34
-3 -70 -11 -79 -19 -24 -19 -1292 -19 -1316 0 -9 7 -51 16 -94 19 -43 3 -82 9
-88 13 -5 4 -55 11 -109 15 -63 4 -105 12 -113 21 -8 8 -23 14 -34 14 -26 0
-26 -57 1 -135 11 -32 20 -66 20 -77 0 -10 3 -18 8 -18 8 0 32 -71 32 -95 0
-9 4 -13 10 -10 6 3 10 -3 10 -14 0 -11 4 -22 10 -26 5 -3 7 -12 4 -20 -4 -8
1 -18 10 -21 9 -3 16 -12 16 -18 0 -7 9 -31 20 -54 11 -22 20 -46 20 -52 0 -5
5 -10 10 -10 6 0 10 -7 10 -16 0 -17 30 -86 41 -94 3 -3 10 -20 14 -38 4 -18
13 -36 20 -38 7 -3 16 -17 20 -32 3 -14 20 -46 36 -70 16 -23 29 -47 29 -53 0
-5 4 -9 8 -9 8 0 18 -18 71 -118 8 -15 17 -29 21 -32 11 -9 70 -98 70 -107 0
-5 9 -15 20 -23 11 -8 20 -19 20 -26 0 -6 9 -19 20 -29 11 -10 20 -24 20 -31
0 -7 11 -21 25 -32 14 -11 25 -24 25 -28 0 -9 15 -28 83 -106 18 -20 52 -60
77 -88 68 -79 329 -340 339 -340 5 0 13 -9 16 -20 3 -11 12 -20 19 -20 8 0 32
-17 54 -38 22 -20 50 -44 62 -52 12 -8 28 -20 34 -25 43 -39 115 -95 121 -95
4 0 22 -12 40 -28 19 -15 55 -43 81 -62 54 -39 80 -60 98 -76 6 -6 23 -14 37
-17 14 -4 38 -18 53 -32 15 -14 38 -28 51 -31 14 -3 25 -10 25 -14 0 -4 8 -10
18 -14 18 -6 50 -24 117 -67 22 -15 50 -29 63 -33 12 -4 22 -11 22 -16 0 -5
14 -12 32 -15 17 -4 38 -13 45 -19 32 -29 42 -34 71 -40 16 -4 33 -14 36 -22
3 -8 13 -14 22 -14 22 0 87 -31 97 -47 4 -7 23 -15 42 -19 19 -3 35 -10 35
-15 0 -4 20 -11 45 -15 25 -3 45 -10 45 -15 0 -5 9 -9 19 -9 11 0 21 -5 23
-10 2 -6 30 -18 63 -26 33 -9 67 -22 76 -30 8 -8 25 -14 37 -14 12 0 22 -4 22
-9 0 -5 21 -12 47 -16 25 -4 52 -13 59 -20 7 -7 33 -16 58 -19 25 -4 48 -11
51 -17 4 -5 17 -9 30 -9 13 0 26 -4 29 -9 3 -4 28 -11 55 -15 27 -4 62 -13 77
-21 15 -8 52 -17 81 -21 29 -3 56 -10 59 -15 3 -5 20 -9 38 -9 19 0 39 -6 45
-14 8 -9 42 -17 92 -22 43 -3 79 -10 79 -14 0 -5 24 -11 53 -13 28 -3 79 -11
112 -17 33 -6 83 -13 110 -16 28 -3 59 -9 70 -14 29 -12 147 -20 438 -27 l257
-6 0 6347 0 6346 -885 0 -885 0 0 -4129z"/>
<path d="M12256 18508 c-4 -403 -8 -3467 -9 -6809 l-2 -6076 765 -5 c421 -3
767 -4 768 -2 2 1 6 1345 9 2987 l6 2985 336 5 c366 5 505 18 756 68 608 121
1088 369 1509 779 584 568 930 1348 1040 2340 41 361 45 885 11 1230 -78 793
-329 1465 -744 1990 -127 160 -412 438 -571 557 -431 322 -909 522 -1473 618
-340 57 -354 58 -1413 62 l-982 4 -6 -733z m2004 -923 c390 -41 684 -139 950
-314 120 -78 308 -269 393 -397 156 -235 255 -521 302 -869 35 -256 30 -746
-11 -1050 -117 -875 -491 -1411 -1131 -1625 -230 -76 -406 -100 -743 -100
l-230 0 0 2185 0 2185 168 0 c92 0 228 -7 302 -15z"/>
</g>
</svg>
