<?xml version="1.0" standalone="no"?>
<!DOCTYPE svg PUBLIC "-//W3C//DTD SVG 20010904//EN"
 "http://www.w3.org/TR/2001/REC-SVG-20010904/DTD/svg10.dtd">
<svg version="1.0" xmlns="http://www.w3.org/2000/svg"
 width="2480.000000pt" height="2480.000000pt" viewBox="0 0 2480.000000 2480.000000"
 preserveAspectRatio="xMidYMid meet">
<metadata>
Created by potrace 1.15, written by Peter Selinger 2001-2017
</metadata>
<g transform="translate(0.000000,2480.000000) scale(0.100000,-0.100000)"
fill="#000000" stroke="none">
<path d="M12059 24681 c-157 -64 -310 -128 -340 -142 -30 -15 -139 -61 -244
-104 -104 -42 -280 -114 -390 -160 -110 -46 -296 -122 -414 -170 -117 -47
-239 -99 -270 -115 -31 -15 -207 -89 -391 -163 -720 -291 -929 -377 -1040
-427 -146 -66 -428 -182 -874 -362 -193 -77 -360 -146 -371 -153 -11 -7 -114
-52 -230 -98 -115 -47 -248 -102 -295 -122 -47 -20 -229 -95 -405 -167 -176
-71 -351 -145 -390 -163 -38 -18 -340 -142 -670 -275 -330 -134 -647 -265
-705 -292 -109 -52 -437 -187 -941 -388 -252 -101 -363 -149 -439 -189 -8 -4
-23 -30 -34 -57 -11 -27 -25 -52 -30 -56 -6 -4 -7 -8 -2 -8 4 0 2 -10 -6 -22
-9 -13 -55 -122 -103 -243 -80 -203 -169 -422 -328 -810 -33 -82 -65 -153 -70
-156 -5 -3 -8 -8 -7 -10 1 -2 -12 -33 -28 -69 -16 -36 -86 -207 -157 -380
-288 -711 -376 -926 -386 -950 -6 -14 -10 -27 -9 -29 1 -2 -2 -7 -8 -10 -9 -6
-110 -246 -222 -531 -32 -80 -80 -197 -108 -260 -27 -63 -87 -207 -133 -320
-45 -113 -86 -207 -90 -210 -4 -3 -37 -80 -72 -170 -58 -149 -111 -279 -309
-765 -34 -82 -76 -181 -93 -220 -93 -203 -179 -407 -300 -717 -30 -76 -95
-238 -146 -360 -50 -123 -107 -263 -127 -313 -20 -49 -41 -93 -47 -97 -5 -4
-6 -8 -1 -8 4 0 1 -11 -8 -25 -9 -14 -13 -25 -9 -25 5 0 3 -4 -2 -8 -13 -9
-22 -29 -97 -217 -33 -82 -104 -256 -158 -385 -53 -129 -137 -332 -185 -450
-48 -118 -91 -219 -95 -225 -4 -5 -64 -150 -134 -321 -88 -218 -126 -322 -126
-350 0 -28 36 -128 120 -334 66 -162 131 -317 144 -345 13 -27 59 -135 101
-240 43 -104 106 -260 142 -345 36 -85 107 -258 158 -385 51 -126 103 -251
114 -278 11 -26 20 -50 20 -54 0 -3 4 -9 9 -12 5 -3 46 -96 90 -206 44 -110
147 -362 227 -560 81 -198 161 -398 180 -445 18 -47 61 -146 95 -220 33 -74
90 -205 125 -290 114 -277 266 -652 311 -767 24 -62 49 -123 56 -135 7 -13 13
-25 13 -28 0 -3 6 -15 13 -27 7 -12 50 -116 96 -230 46 -114 108 -262 136
-328 28 -66 78 -185 110 -265 90 -227 170 -419 200 -485 31 -68 152 -360 275
-665 205 -509 258 -636 313 -756 33 -71 78 -174 100 -229 22 -55 90 -221 150
-370 60 -148 140 -346 177 -440 38 -93 72 -171 76 -173 5 -2 5 -10 2 -18 -3
-8 0 -14 7 -14 6 0 8 -4 5 -10 -3 -5 -2 -10 2 -10 5 0 17 -23 27 -51 17 -47
23 -53 75 -75 31 -14 72 -33 91 -43 19 -11 103 -46 186 -80 84 -33 259 -105
390 -159 132 -55 347 -144 479 -197 132 -54 249 -104 260 -111 11 -6 205 -86
430 -177 226 -91 505 -205 620 -254 116 -49 226 -96 245 -103 19 -8 37 -17 40
-20 3 -4 46 -23 95 -43 762 -305 1208 -487 1215 -497 3 -4 111 -50 240 -103
778 -316 1070 -436 1105 -454 22 -11 191 -81 375 -156 184 -74 409 -167 500
-205 91 -38 228 -96 305 -127 77 -31 145 -61 150 -66 6 -4 186 -79 400 -165
580 -233 759 -307 870 -359 198 -95 686 -285 730 -285 43 0 528 189 730 285
116 55 287 126 840 347 220 88 410 166 421 173 12 8 84 39 160 71 77 31 201
83 278 116 76 32 301 125 500 205 198 80 381 156 406 168 25 12 142 62 260
110 567 230 1040 425 1085 448 58 29 326 139 895 367 223 90 407 166 410 170
3 3 21 12 40 20 19 7 118 49 220 93 102 43 379 157 616 253 238 95 454 185
480 198 27 13 135 58 239 101 105 43 307 126 450 185 143 59 330 136 415 170
85 34 169 69 185 79 17 9 56 27 87 40 53 21 58 26 79 79 13 31 28 60 33 64 6
4 7 8 2 8 -4 0 -1 11 8 25 9 14 13 25 9 25 -5 0 -3 4 3 8 6 4 53 111 103 237
51 127 126 309 166 405 41 96 115 276 165 400 51 124 95 230 100 235 7 9 94
223 315 770 62 154 156 374 220 520 10 22 19 42 20 45 1 3 12 28 24 55 23 50
281 687 391 965 32 80 70 172 85 205 16 33 27 63 27 68 -1 4 3 7 9 7 5 0 8 4
5 9 -4 5 -2 11 2 13 5 1 23 41 42 88 18 47 73 180 121 295 48 116 139 338 202
495 63 157 134 328 157 380 50 113 234 560 294 715 24 61 77 189 118 285 41
96 99 234 128 305 29 72 59 139 66 150 11 18 264 640 334 820 50 130 120 297
160 379 21 45 93 214 159 375 117 283 121 296 121 366 0 67 -5 85 -61 217 -33
78 -74 179 -90 222 -35 92 -109 265 -145 337 -24 46 -114 266 -346 844 -55
138 -116 284 -135 325 -20 41 -62 141 -94 222 -33 81 -85 205 -115 275 -31 71
-77 180 -101 243 -79 199 -223 550 -280 680 -31 69 -102 242 -160 385 -58 143
-129 317 -159 387 -30 70 -88 211 -129 314 -42 104 -82 198 -90 211 -14 20
-82 186 -310 753 -37 91 -96 236 -131 322 -35 86 -64 162 -64 167 0 6 -5 11
-12 11 -6 0 -8 3 -5 7 4 3 0 17 -8 30 -9 13 -12 23 -8 23 5 0 3 4 -3 8 -6 4
-23 41 -39 82 -16 41 -51 125 -78 185 -27 61 -82 191 -122 290 -223 552 -308
761 -315 770 -4 6 -43 96 -85 200 -43 105 -123 298 -178 430 -55 132 -137 332
-182 445 -46 113 -95 228 -109 255 -14 28 -34 71 -45 98 -11 26 -26 47 -32 47
-6 0 -39 14 -72 31 -33 17 -205 88 -382 159 -463 185 -802 324 -860 353 -97
48 -216 98 -785 327 -316 128 -611 249 -655 270 -44 21 -195 84 -335 140 -140
57 -327 133 -415 170 -88 37 -245 103 -350 145 -104 42 -199 83 -210 90 -12 7
-158 68 -325 135 -493 198 -776 314 -920 380 -74 33 -342 145 -595 247 -681
275 -795 322 -847 348 -26 14 -114 52 -197 84 -82 33 -256 105 -387 159 -132
55 -347 144 -479 197 -132 54 -249 104 -260 111 -11 7 -156 67 -323 133 -279
112 -307 121 -365 120 -55 -1 -95 -15 -348 -118z m496 -741 c66 -28 147 -63
180 -79 33 -16 206 -88 385 -160 514 -206 842 -340 885 -363 40 -20 102 -46
780 -323 193 -79 391 -160 440 -180 50 -20 108 -46 129 -57 22 -10 127 -55
235 -98 108 -43 311 -126 451 -183 140 -58 338 -140 440 -182 102 -42 206 -87
232 -100 26 -14 161 -70 300 -126 463 -185 841 -341 995 -410 84 -38 253 -109
377 -159 340 -135 937 -380 971 -397 17 -8 192 -82 390 -163 198 -81 473 -194
612 -251 l251 -104 82 -200 c45 -110 156 -384 247 -610 90 -225 168 -415 173
-420 5 -6 31 -64 58 -130 27 -66 72 -174 100 -240 28 -66 130 -311 226 -545
168 -410 311 -756 437 -1060 34 -80 104 -251 156 -380 52 -129 110 -266 128
-305 18 -38 66 -149 105 -245 69 -170 365 -899 401 -990 9 -25 45 -106 79
-180 56 -125 363 -870 443 -1075 19 -49 52 -126 72 -170 21 -44 81 -183 133
-310 166 -406 322 -786 374 -915 27 -69 53 -129 58 -135 11 -15 113 -266 113
-280 0 -15 -112 -293 -129 -320 -7 -11 -69 -159 -137 -330 -69 -170 -149 -364
-177 -430 -29 -66 -83 -199 -122 -295 -39 -96 -84 -202 -100 -235 -17 -33 -63
-143 -103 -245 -124 -313 -370 -908 -430 -1040 -31 -69 -74 -168 -94 -220 -49
-121 -285 -705 -391 -965 -45 -110 -86 -204 -90 -210 -5 -5 -70 -161 -145
-345 -75 -184 -181 -444 -236 -577 -54 -133 -117 -284 -140 -335 -46 -105
-151 -360 -305 -742 -58 -142 -126 -304 -150 -360 -25 -55 -61 -141 -80 -191
-19 -49 -39 -94 -45 -101 -6 -7 -88 -205 -183 -441 -95 -235 -208 -514 -251
-620 l-77 -192 -137 -55 c-496 -200 -1120 -455 -1136 -465 -31 -17 -458 -195
-830 -346 -187 -75 -376 -153 -420 -172 -136 -59 -905 -378 -1215 -503 -58
-23 -136 -57 -175 -75 -38 -18 -297 -125 -575 -238 -278 -113 -554 -225 -615
-250 -60 -25 -162 -68 -225 -97 -126 -56 -636 -266 -991 -408 -124 -50 -243
-100 -265 -111 -43 -22 -476 -202 -965 -400 -173 -71 -333 -138 -355 -149 -21
-11 -95 -43 -164 -71 l-126 -50 -139 58 c-77 32 -171 72 -210 89 -38 17 -218
92 -400 166 -586 239 -819 336 -859 357 -22 11 -161 69 -310 129 -416 167
-819 333 -946 390 -63 29 -306 130 -540 225 -781 317 -855 348 -865 356 -6 4
-136 59 -290 122 -714 292 -1017 418 -1053 436 -21 11 -131 57 -243 101 -416
167 -995 407 -1064 442 -22 11 -204 87 -405 168 -201 81 -478 193 -615 249
l-251 102 -76 187 c-42 103 -120 293 -173 422 -53 129 -126 307 -162 395 -36
88 -78 187 -93 220 -30 64 -300 721 -300 729 0 5 -110 273 -232 566 -33 80
-65 150 -69 156 -9 11 -156 368 -351 854 -60 151 -119 293 -131 315 -19 38
-52 115 -260 620 -129 314 -282 683 -427 1035 -166 400 -338 821 -395 960 -25
63 -52 124 -60 136 -14 21 -86 197 -320 779 -164 408 -180 448 -210 510 -13
28 -49 108 -79 179 l-55 129 35 81 c20 45 46 109 59 143 13 34 30 72 38 85 8
13 47 104 87 203 246 615 439 1087 450 1100 4 5 38 84 75 175 36 91 108 266
160 390 51 124 144 349 205 500 62 151 116 280 120 285 4 6 56 129 115 275 59
146 146 357 192 470 47 113 118 285 159 384 40 98 77 183 82 190 6 6 64 146
130 311 229 571 344 850 399 970 30 66 84 190 118 275 35 85 106 261 158 390
214 529 308 756 321 780 7 14 43 97 79 185 36 88 104 255 152 370 47 116 125
305 173 420 l86 210 250 104 c138 57 404 166 591 242 187 76 363 150 390 163
49 24 611 254 1039 426 122 49 266 109 321 135 103 49 416 178 965 400 173 70
326 133 340 141 34 19 739 312 1074 446 109 43 215 88 236 98 32 16 267 113
1140 470 118 48 238 99 265 113 48 24 392 165 955 392 146 58 288 117 315 131
98 47 310 133 320 129 6 -2 64 -26 130 -55z"/>
<path d="M12440 16977 c0 -1168 -3 -4386 -7 -7150 l-6 -5027 810 0 810 0 6
1637 c4 900 7 2310 7 3133 l0 1498 368 5 c294 4 398 9 522 26 664 90 1172 297
1640 670 128 101 366 341 474 476 491 617 759 1353 848 2335 17 194 17 899 0
1075 -29 292 -68 528 -123 753 -240 982 -821 1763 -1653 2225 -443 246 -929
386 -1556 448 -74 7 -477 13 -1127 16 l-1013 5 0 -2125z m1945 413 c845 -51
1398 -366 1690 -965 112 -230 178 -479 217 -820 16 -141 16 -627 -1 -805 -94
-1031 -471 -1646 -1164 -1904 -232 -87 -420 -116 -784 -123 l-283 -6 0 2317 0
2316 78 0 c42 0 154 -5 247 -10z"/>
<path d="M10120 14751 c0 -2876 -3 -4332 -10 -4336 -6 -4 -10 -59 -10 -133 0
-85 -5 -140 -14 -167 -8 -22 -18 -88 -21 -147 -4 -60 -11 -108 -16 -108 -5 0
-9 -11 -9 -25 0 -30 -19 -113 -31 -137 -5 -10 -9 -29 -9 -42 0 -13 -6 -26 -14
-29 -7 -3 -17 -26 -20 -51 -4 -25 -11 -46 -17 -46 -5 0 -9 -8 -9 -17 0 -10 -9
-33 -20 -51 -11 -18 -20 -39 -20 -47 0 -8 -6 -18 -14 -22 -7 -4 -20 -22 -29
-38 -16 -32 -114 -135 -128 -135 -4 0 -20 -11 -35 -25 -14 -13 -42 -30 -60
-37 -19 -7 -34 -16 -34 -20 0 -4 -18 -11 -39 -14 -22 -4 -42 -13 -45 -20 -3
-8 -14 -14 -25 -14 -11 0 -22 -4 -26 -10 -3 -5 -33 -12 -66 -16 -33 -4 -67
-13 -74 -21 -8 -8 -47 -16 -95 -20 -44 -3 -80 -9 -80 -13 0 -4 -31 -10 -70
-12 -38 -3 -77 -12 -86 -19 -25 -20 -1363 -21 -1387 -1 -9 8 -52 16 -99 19
-46 3 -87 9 -93 13 -5 4 -57 11 -114 15 -68 4 -109 12 -118 21 -8 8 -25 14
-39 14 -21 0 -24 -4 -24 -40 0 -23 7 -54 15 -69 8 -16 11 -31 8 -35 -4 -3 -1
-6 6 -6 7 0 11 -7 8 -15 -4 -8 -2 -17 3 -20 6 -4 10 -17 10 -31 0 -13 3 -24 8
-24 8 0 32 -71 32 -95 0 -9 4 -14 9 -11 7 5 19 -26 25 -66 1 -4 7 -13 13 -20
7 -6 13 -17 13 -23 0 -6 9 -30 20 -53 11 -22 20 -46 20 -52 0 -5 4 -10 9 -10
5 0 12 -18 16 -39 4 -22 13 -42 21 -45 8 -3 14 -12 14 -21 0 -8 4 -15 9 -15 5
0 12 -16 15 -36 4 -19 13 -37 21 -40 8 -3 17 -20 21 -37 3 -18 9 -34 13 -37
13 -11 51 -70 51 -80 0 -6 9 -20 20 -32 10 -11 26 -36 35 -54 9 -19 21 -34 27
-34 6 0 8 -9 5 -20 -3 -11 -1 -18 4 -14 5 3 9 -1 9 -10 0 -8 4 -16 8 -18 11
-4 72 -94 72 -105 0 -5 9 -15 20 -23 11 -8 20 -19 20 -25 0 -7 11 -22 25 -35
14 -13 25 -29 25 -36 0 -7 11 -21 25 -32 14 -11 25 -24 25 -28 0 -5 11 -22 25
-39 83 -97 104 -122 145 -167 77 -86 340 -348 348 -348 5 0 14 -11 22 -24 7
-14 23 -27 37 -31 13 -3 21 -10 18 -15 -3 -6 -2 -10 4 -10 5 0 21 -10 35 -22
13 -13 34 -30 46 -38 12 -8 39 -30 59 -47 20 -18 44 -35 54 -39 9 -3 17 -9 17
-14 0 -5 12 -16 28 -24 15 -8 40 -26 56 -40 16 -14 35 -26 43 -26 7 0 13 -4
13 -8 0 -4 12 -15 28 -24 15 -9 40 -28 55 -42 15 -14 35 -26 43 -26 8 0 12 -4
9 -10 -3 -5 1 -10 10 -10 18 0 95 -49 95 -61 0 -4 14 -10 30 -14 17 -4 30 -10
30 -13 0 -4 10 -12 23 -18 65 -33 93 -49 105 -61 7 -7 20 -13 28 -13 8 0 14
-4 14 -9 0 -5 13 -12 29 -16 16 -3 32 -12 34 -20 3 -7 20 -16 38 -20 18 -4 39
-13 46 -19 32 -29 42 -34 71 -40 16 -4 33 -13 35 -21 3 -7 24 -16 46 -20 23
-4 41 -11 41 -16 0 -5 7 -9 15 -9 9 0 18 -6 21 -14 3 -8 23 -17 45 -21 21 -4
39 -11 39 -16 0 -5 9 -9 19 -9 11 0 23 -4 26 -10 3 -5 17 -10 31 -10 13 0 24
-4 24 -10 0 -5 7 -10 16 -10 8 0 21 -6 29 -13 7 -8 41 -20 74 -27 33 -7 66
-19 72 -26 6 -8 22 -14 35 -14 13 0 24 -4 24 -9 0 -5 21 -12 47 -16 25 -4 52
-13 59 -20 8 -7 36 -16 64 -20 27 -4 50 -11 50 -16 0 -5 13 -9 29 -9 16 0 34
-6 40 -14 7 -8 39 -17 71 -21 33 -4 60 -11 60 -15 0 -5 33 -14 73 -21 39 -6
76 -16 81 -21 6 -4 24 -8 42 -8 17 0 37 -6 43 -14 8 -9 43 -17 97 -21 46 -4
84 -11 84 -15 0 -5 24 -11 53 -14 28 -3 81 -10 117 -16 36 -6 93 -14 128 -16
34 -3 62 -9 62 -14 0 -4 37 -10 83 -14 45 -3 132 -10 192 -15 61 -5 190 -10
288 -10 l177 -1 0 6650 0 6650 -935 0 -935 0 0 -4329z"/>
</g>
</svg>
